<svg width="60" height="60" viewBox="0 0 60 60" fill="none" xmlns="http://www.w3.org/2000/svg">
<path d="M56.297 30.8526C56.297 28.7196 56.1204 27.163 55.7382 25.5489H30.8843V35.1762H45.473C45.1789 37.5687 43.5907 41.1718 40.061 43.593L40.0116 43.9153L47.8699 49.8813L48.4143 49.9346C53.4145 45.409 56.297 38.7505 56.297 30.8526Z" fill="#4285F4"/>
<path d="M30.8828 56.2186C38.03 56.2186 44.0302 53.9125 48.4128 49.9348L40.0596 43.5931C37.8242 45.1209 34.8241 46.1874 30.8828 46.1874C23.8826 46.1874 17.9413 41.662 15.8234 35.407L15.5129 35.4328L7.34172 41.6302L7.23486 41.9213C11.5879 50.3958 20.5294 56.2186 30.8828 56.2186Z" fill="#34A853"/>
<path d="M15.8247 35.4072C15.2659 33.793 14.9424 32.0634 14.9424 30.2763C14.9424 28.4891 15.2659 26.7597 15.7953 25.1455L15.7805 24.8018L7.50687 18.5049L7.23617 18.6311C5.44206 22.1477 4.4126 26.0968 4.4126 30.2763C4.4126 34.4559 5.44206 38.4048 7.23617 41.9214L15.8247 35.4072Z" fill="#FBBC05"/>
<path d="M30.883 14.3651C35.8537 14.3651 39.2067 16.4693 41.1186 18.2278L48.5895 11.0792C44.0012 6.89964 38.0302 4.33423 30.883 4.33423C20.5295 4.33423 11.5879 10.1568 7.23486 18.6312L15.794 25.1456C17.9413 18.8907 23.8827 14.3651 30.883 14.3651Z" fill="#EB4335"/>
</svg>
