<svg width="76" height="90" viewBox="0 0 76 90" fill="none" xmlns="http://www.w3.org/2000/svg">
<g clip-path="url(#clip0_45_7717)">
<mask id="mask0_45_7717" style="mask-type:luminance" maskUnits="userSpaceOnUse" x="5" y="0" width="66" height="65">
<path d="M70.6574 0H5.14258V64.125H70.6574V0Z" fill="white"/>
</mask>
<g mask="url(#mask0_45_7717)">
<path fill-rule="evenodd" clip-rule="evenodd" d="M19.4316 5.20532C8.26233 12.7168 2.56775 26.6092 6.26713 40.2041C10.9485 57.4155 28.9114 67.6283 46.3866 63.0169C60.6666 59.2492 70.2003 46.7511 70.6558 32.915C68.6798 44.2693 60.2169 54.024 48.1771 57.2006C31.6847 61.5538 14.7323 51.9145 10.312 35.6701C7.20885 24.2612 11.1139 12.6274 19.4298 5.20532H19.4316Z" fill="#009F5C"/>
<path fill-rule="evenodd" clip-rule="evenodd" d="M56.0426 49.7177C65.4667 43.3789 70.2724 31.6579 67.1507 20.1852C63.1993 5.6615 48.0431 -2.95612 33.2965 0.933855C21.2472 4.11424 13.2016 14.6621 12.8159 26.336C14.4835 16.7548 21.6253 8.52407 31.7849 5.84375C45.7015 2.17123 60.0073 10.3051 63.7364 24.0114C66.3559 33.6397 63.0599 43.456 56.0426 49.7186V49.7177Z" fill="#4877CC"/>
<path d="M29.6941 19.7833L31.8587 21.9999L34.0104 19.8003L33.9932 19.7643H33.7554C33.352 19.7643 33.0991 19.5059 33.1099 19.1077C33.1195 18.2412 33.3547 17.3916 33.7931 16.6401C34.6537 15.1448 35.9447 14.1716 37.6477 13.8051C39.5208 13.4038 41.2184 13.8221 42.6967 15.0315C43.6796 15.8138 44.3573 16.9067 44.6148 18.1249C45.0915 20.3605 44.4556 22.2636 42.73 23.7928C41.9239 24.5035 40.9222 24.9637 39.8511 25.1155C38.7042 25.2934 37.5767 25.1854 36.5311 24.6813C35.2841 24.0798 34.2944 23.1912 33.6833 21.9374C33.665 21.8992 33.6435 21.8632 33.6155 21.8124C33.4951 21.931 33.3799 22.0422 33.2691 22.1555C32.9464 22.4849 32.6236 22.8164 32.3009 23.1457C32.0319 23.4221 31.7016 23.4295 31.4316 23.1542C30.3866 22.0881 29.3437 21.0199 28.3031 19.9496L27.9803 19.6202C27.8977 19.5429 27.8409 19.4427 27.8176 19.3329C27.7943 19.2231 27.8053 19.109 27.8495 19.0055C27.8936 18.9021 27.9687 18.8143 28.0647 18.7539C28.1607 18.6934 28.2731 18.6632 28.387 18.6671C28.7227 18.6671 29.0583 18.6671 29.394 18.6671C29.4649 18.6671 29.5016 18.6544 29.5016 18.5718C29.618 17.2196 30.042 15.9105 30.742 14.7413C31.6455 13.2124 32.974 11.9695 34.5709 11.1586C35.8692 10.4998 37.305 10.1463 38.7655 10.1259C40.226 10.1055 41.6714 10.4188 42.9882 11.0411C45.4834 12.2413 47.1437 14.1543 47.9693 16.7799C48.1459 17.3362 48.2585 17.9103 48.3049 18.4913C48.3119 18.562 48.3045 18.6332 48.2833 18.7011C48.2621 18.7689 48.2274 18.832 48.1813 18.8865C48.1352 18.9411 48.0785 18.9861 48.0146 19.019C47.9507 19.0519 47.8808 19.0719 47.809 19.078C47.734 19.0868 47.658 19.0804 47.5856 19.0593C47.5132 19.0382 47.446 19.0028 47.388 18.9552C47.33 18.9076 47.2824 18.8489 47.2483 18.7826C47.2141 18.7163 47.194 18.6439 47.1893 18.5697C46.9993 16.8267 46.2485 15.1892 45.0465 13.8958C43.8444 12.6024 42.2541 11.721 40.5073 11.38C39.6544 11.2117 38.7794 11.1817 37.9167 11.291C35.9544 11.5127 34.1399 12.426 32.8087 13.8623C31.7393 14.976 31.0217 16.3715 30.7431 17.8792C30.6824 18.2157 30.6432 18.5556 30.6258 18.8969C30.5935 19.437 30.3095 19.7314 29.7576 19.7653C29.7361 19.7699 29.7149 19.776 29.6941 19.7833Z" fill="#4877CC"/>
<path d="M47.8303 20.4241C47.7203 20.422 47.6135 20.388 47.5231 20.3264C47.4327 20.2647 47.3628 20.1782 47.3222 20.0776C47.2815 19.977 47.2721 19.8668 47.2948 19.7609C47.3175 19.655 47.3715 19.5581 47.4501 19.4823C47.5285 19.4064 47.628 19.3551 47.736 19.3348C47.8441 19.3144 47.9558 19.3259 48.0571 19.3678C48.1586 19.4097 48.2451 19.4801 48.306 19.5703C48.3669 19.6604 48.3994 19.7663 48.3994 19.8745C48.3977 20.0216 48.3369 20.162 48.2302 20.265C48.1235 20.368 47.9797 20.4252 47.8303 20.4241Z" fill="#4877CC"/>
<path d="M48.4304 21.2883C48.4304 21.4359 48.3709 21.5774 48.265 21.6818C48.1592 21.7863 48.0155 21.8451 47.8656 21.8454C47.7539 21.8454 47.6448 21.8128 47.5519 21.7518C47.459 21.6907 47.3866 21.6039 47.3439 21.5024C47.3011 21.4009 47.2898 21.2891 47.3116 21.1813C47.3333 21.0735 47.3869 20.9744 47.4658 20.8966C47.5447 20.8188 47.6453 20.7658 47.7548 20.7442C47.8642 20.7226 47.9778 20.7335 48.081 20.7754C48.1842 20.8173 48.2725 20.8884 48.3347 20.9797C48.3969 21.071 48.4302 21.1784 48.4304 21.2883Z" fill="#4877CC"/>
<path d="M40.7478 21.2931C40.715 21.2624 40.6716 21.246 40.6269 21.2475C40.5822 21.2489 40.5399 21.2681 40.5092 21.3008C40.342 21.4744 40.1425 21.6131 39.9219 21.7088C39.7014 21.8046 39.4643 21.8555 39.2242 21.8588C38.547 21.8588 37.9006 21.4403 37.5313 20.7507H39.2857C39.3091 20.7511 39.3323 20.7468 39.354 20.738C39.3756 20.7292 39.3953 20.7161 39.4118 20.6994C39.4283 20.6828 39.4413 20.663 39.4501 20.6411C39.4588 20.6194 39.4632 20.596 39.4627 20.5725V19.9681C39.4632 19.9445 39.4588 19.9212 39.4501 19.8994C39.4413 19.8775 39.4283 19.8577 39.4118 19.8411C39.3953 19.8244 39.3756 19.8113 39.354 19.8026C39.3323 19.7937 39.3091 19.7894 39.2857 19.7899H37.2234C37.2108 19.6767 37.2057 19.5628 37.2081 19.4489C37.2086 19.3323 37.2163 19.2158 37.2311 19.1002H39.2857C39.3091 19.1006 39.3323 19.0963 39.354 19.0875C39.3756 19.0787 39.3953 19.0656 39.4118 19.0489C39.4283 19.0323 39.4413 19.0125 39.4501 18.9907C39.4588 18.9689 39.4632 18.9455 39.4627 18.922V18.3176C39.4632 18.2941 39.4588 18.2707 39.4501 18.2489C39.4413 18.2271 39.4283 18.2073 39.4118 18.1906C39.3953 18.174 39.3756 18.1609 39.354 18.1521C39.3323 18.1432 39.3091 18.1389 39.2857 18.1394H37.5313C37.9006 17.4574 38.5393 17.0313 39.2242 17.0313C39.4649 17.0353 39.7024 17.0873 39.923 17.1845C40.1436 17.2816 40.3428 17.4217 40.5092 17.5969C40.54 17.6295 40.5823 17.6486 40.6269 17.65C40.6716 17.6515 40.715 17.6352 40.7478 17.6047L41.4172 16.9848C41.4541 16.9506 41.4761 16.9034 41.4788 16.853C41.4787 16.8051 41.4624 16.7587 41.4326 16.7213C40.8247 16.1014 40.0475 15.7605 39.2318 15.7605C37.8852 15.7605 36.6617 16.7136 36.1769 18.1316H35.4382C35.4149 18.1312 35.3917 18.1355 35.37 18.1443C35.3483 18.1531 35.3287 18.1663 35.3121 18.1828C35.2956 18.1995 35.2826 18.2193 35.2738 18.2411C35.2651 18.2629 35.2608 18.2863 35.2613 18.3098V18.9142C35.2608 18.9378 35.2651 18.9611 35.2738 18.9829C35.2826 19.0047 35.2956 19.0246 35.3121 19.0412C35.3287 19.0578 35.3483 19.0709 35.37 19.0798C35.3917 19.0885 35.4149 19.0929 35.4382 19.0925H35.9769C35.9692 19.2164 35.9615 19.3327 35.9615 19.4412C35.9615 19.5496 35.9692 19.6659 35.9769 19.7821H35.4382C35.4149 19.7817 35.3917 19.786 35.37 19.7948C35.3483 19.8036 35.3287 19.8167 35.3121 19.8333C35.2956 19.85 35.2826 19.8698 35.2738 19.8916C35.2651 19.9134 35.2608 19.9368 35.2613 19.9603V20.5647C35.2608 20.5883 35.2651 20.6116 35.2738 20.6334C35.2826 20.6553 35.2956 20.6751 35.3121 20.6917C35.3287 20.7083 35.3483 20.7214 35.37 20.7302C35.3917 20.739 35.4149 20.7433 35.4382 20.743H36.1769C36.6617 22.161 37.8852 23.1141 39.2318 23.1141C39.6439 23.1109 40.0512 23.0242 40.4293 22.8591C40.8074 22.694 41.1486 22.454 41.4326 22.1533C41.4672 22.1182 41.4865 22.0708 41.4865 22.0215C41.4841 21.9711 41.462 21.9238 41.4249 21.8898L40.7478 21.2931Z" fill="white"/>
<path fill-rule="evenodd" clip-rule="evenodd" d="M28.3354 24.088C31.7997 30.6073 34.9075 32.9311 37.6586 31.0594C37.412 37.5054 34.863 42.4276 30.0115 45.8259C37.6175 35.3604 28.7874 29.9634 28.3354 24.088Z" fill="#009F5C"/>
<path fill-rule="evenodd" clip-rule="evenodd" d="M34.6551 30.0977C34.2477 30.0977 33.8494 29.9789 33.5107 29.7563C33.1719 29.5337 32.9079 29.2173 32.752 28.8471C32.5961 28.4768 32.5553 28.0695 32.6348 27.6765C32.7143 27.2835 32.9105 26.9225 33.1985 26.6392C33.4866 26.3558 33.8537 26.1629 34.2533 26.0847C34.6529 26.0065 35.067 26.0467 35.4434 26.2C35.8198 26.3534 36.1415 26.613 36.3679 26.9462C36.5942 27.2793 36.7151 27.6711 36.7151 28.0717C36.7151 28.6091 36.4981 29.1244 36.1117 29.5043C35.7254 29.8843 35.2015 30.0977 34.6551 30.0977Z" fill="#009F5C"/>
<path fill-rule="evenodd" clip-rule="evenodd" d="M24.0019 29.689C26.6512 34.6747 29.0276 36.4517 31.1312 35.0199C30.9433 39.9495 28.9934 43.7138 25.2816 46.3127C31.0983 38.3092 24.3457 34.1821 24 29.689" fill="#009F5C"/>
<path fill-rule="evenodd" clip-rule="evenodd" d="M28.8363 34.2849C28.5247 34.2849 28.2201 34.194 27.9609 34.0237C27.7018 33.8535 27.4999 33.6115 27.3807 33.3283C27.2614 33.0452 27.2302 32.7336 27.291 32.433C27.3518 32.1325 27.5018 31.8564 27.7222 31.6397C27.9425 31.423 28.2232 31.2754 28.5288 31.2156C28.8345 31.1558 29.1513 31.1865 29.4392 31.3038C29.7271 31.421 29.9731 31.6197 30.1463 31.8745C30.3194 32.1293 30.4118 32.4289 30.4118 32.7353C30.4118 33.1463 30.2458 33.5404 29.9503 33.8311C29.6549 34.1217 29.2541 34.2849 28.8363 34.2849Z" fill="#009F5C"/>
<path fill-rule="evenodd" clip-rule="evenodd" d="M48.0287 24.088C44.5644 30.6073 41.4567 32.9311 38.7056 31.0594C38.9521 37.5054 41.5011 42.4276 46.3526 45.8259C38.7467 35.3604 47.5767 29.9634 48.0287 24.088Z" fill="#4877CC"/>
<path fill-rule="evenodd" clip-rule="evenodd" d="M41.7078 30.0977C42.1153 30.0977 42.5136 29.9789 42.8523 29.7563C43.191 29.5337 43.4551 29.2173 43.611 28.8471C43.7669 28.4768 43.8077 28.0695 43.7282 27.6765C43.6488 27.2835 43.4525 26.9225 43.1645 26.6392C42.8763 26.3558 42.5094 26.1629 42.1098 26.0847C41.7102 26.0065 41.296 26.0467 40.9196 26.2C40.5432 26.3534 40.2214 26.613 39.9951 26.9462C39.7688 27.2793 39.6479 27.6711 39.6479 28.0717C39.6479 28.3378 39.7012 28.6013 39.8047 28.8471C39.9083 29.0928 40.06 29.3162 40.2513 29.5043C40.4425 29.6925 40.6697 29.8417 40.9196 29.9435C41.1695 30.0453 41.4373 30.0977 41.7078 30.0977Z" fill="#4877CC"/>
<path fill-rule="evenodd" clip-rule="evenodd" d="M52.3597 29.689C49.7105 34.6747 47.3341 36.4517 45.2305 35.0199C45.4184 39.9495 47.3682 43.7138 51.0801 46.3127C45.2633 38.3092 52.016 34.1821 52.3617 29.689" fill="#4877CC"/>
<path fill-rule="evenodd" clip-rule="evenodd" d="M47.5272 34.2849C47.8388 34.2849 48.1434 34.194 48.4025 34.0237C48.6616 33.8535 48.8635 33.6115 48.9828 33.3283C49.1021 33.0452 49.1333 32.7336 49.0725 32.433C49.0117 32.1325 48.8616 31.8564 48.6413 31.6397C48.4209 31.423 48.1402 31.2754 47.8345 31.2156C47.5289 31.1558 47.2122 31.1865 46.9243 31.3038C46.6364 31.421 46.3903 31.6197 46.2172 31.8745C46.0441 32.1293 45.9517 32.4289 45.9517 32.7353C45.9517 33.1463 46.1177 33.5404 46.4131 33.8311C46.7086 34.1217 47.1093 34.2849 47.5272 34.2849Z" fill="#4877CC"/>
<path fill-rule="evenodd" clip-rule="evenodd" d="M60.7857 42.2246C60.4686 41.3684 59.1189 40.904 57.6211 41.0558C57.2189 41.132 56.7469 41.2086 56.3499 41.2852C54.4567 41.9111 44.803 45.1043 44.7239 45.1809L44.4848 45.2636L44.647 45.4164C45.756 46.2721 46.3066 47.2119 45.9879 47.9915C45.6777 49.2355 44.0893 49.9381 41.5596 50.0912C39.1871 50.3285 36.3396 50.0912 32.9361 49.4728C33.2539 49.4728 33.7281 49.4728 34.1232 49.5494C36.5738 49.5494 38.8689 49.5494 40.6933 49.3887C43.4644 49.1593 44.8053 48.5334 44.9662 47.5178C45.0449 46.8219 44.6488 46.2721 43.6941 45.8068C42.6702 45.2636 40.4533 45.0273 38.3983 44.6381C36.8947 44.4018 35.6272 44.2481 34.5992 44.0192C31.2797 43.156 27.874 42.3025 23.8412 42.6137C23.2065 42.6902 22.5771 42.6903 21.9425 42.8435C18.9394 43.3928 15.9306 44.0958 12.7662 44.9511L12.3711 45.0273L17.0408 51.5742C17.8306 51.4136 18.6999 51.2608 19.5683 51.1842C20.6767 51.1076 21.7083 51.1076 22.6558 51.2608C23.9193 51.4963 27.1606 52.1161 30.2477 52.7421C33.421 53.4464 36.4978 53.9878 37.6081 54.1406C38.3232 54.2238 38.9565 54.2237 39.5854 54.2237C41.1671 54.0635 42.7493 53.2078 44.2533 52.4295C44.7262 52.1161 45.2008 51.9629 45.6804 51.6491L59.4394 44.3247C61.0217 43.3928 61.0217 42.6137 60.7874 42.2246H60.7857Z" fill="#009F5C"/>
</g>
<mask id="mask1_45_7717" style="mask-type:luminance" maskUnits="userSpaceOnUse" x="0" y="70" width="76" height="20">
<path d="M75.7029 70.125H0V89.9475H75.7029V70.125Z" fill="white"/>
</mask>
<g mask="url(#mask1_45_7717)">
<path d="M0 71.4751H3.29143V89.5651H0V71.4751Z" fill="#0D9F53"/>
<path d="M16.6631 81.0882C18.3374 81.2738 19.4574 82.3825 19.4574 84.2725V89.5651H16.3031V85.0651C16.3084 84.907 16.2797 84.7489 16.2188 84.6021C16.1579 84.4559 16.0662 84.3231 15.9496 84.214C15.8331 84.1043 15.6943 84.0205 15.5426 83.9676C15.3908 83.9147 15.2293 83.8939 15.0688 83.9063H9.88593V89.5313H6.72021V70.0913H9.8745V81.0263H13.2745L16.1316 76.1106H19.5602L16.6631 81.0882Z" fill="#0D9F53"/>
<path d="M32.3656 76.1438H35.657L29.6513 89.565H26.5484L20.5713 76.1438H23.9999L28.1999 85.7344H28.2799L32.3656 76.1438Z" fill="#0D9F53"/>
<path d="M49.7542 83.9232H38.9771C39.1223 84.8227 39.595 85.6394 40.3067 86.221C41.0185 86.8027 41.9209 87.1098 42.8456 87.0845C44.3771 87.0845 45.7028 86.432 46.2742 85.352H49.5371C48.6571 88.2713 45.9999 89.942 42.7885 89.942C38.3199 89.942 35.7085 86.6795 35.7085 82.8713C35.7085 78.9001 38.5942 75.767 42.7885 75.767C47.3142 75.767 50.1656 79.3051 49.7542 83.9232ZM39.0285 81.3863H46.4914C46.2919 80.5662 45.8062 79.8412 45.119 79.3372C44.4319 78.8337 43.5868 78.5834 42.7314 78.6301C41.8838 78.589 41.0484 78.8427 40.3715 79.3467C39.6946 79.8502 39.2192 80.5724 39.0285 81.3863Z" fill="#0D9F53"/>
<path d="M62.8114 76.1438V79.1869H55.3486C55.2334 79.1779 55.1176 79.1937 55.009 79.2319C54.9003 79.2707 54.8013 79.3315 54.7185 79.4114C54.6357 79.4907 54.5711 79.5863 54.529 79.692C54.4869 79.7978 54.4682 79.9114 54.4743 80.0251C54.4693 80.2219 54.5356 80.4143 54.6611 80.5679C54.7866 80.7214 54.9634 80.826 55.16 80.8632L60.5372 82.0219C62.5086 82.4269 63.7714 83.8613 63.7714 85.6669C63.7714 87.9169 61.9886 89.6044 59.6 89.6044H51.7029V86.6063H59.5772C59.7994 86.5922 60.0086 86.5 60.1674 86.347C60.3269 86.1934 60.4246 85.9892 60.444 85.771C60.4634 85.5527 60.4029 85.335 60.2732 85.1573C60.1434 84.979 59.9532 84.853 59.7372 84.8007L54.3372 83.6363C52.4172 83.2088 51.1543 81.8025 51.1543 80.0194C51.1543 77.7694 52.9086 76.1832 55.2686 76.1832L62.8114 76.1438Z" fill="#0D9F53"/>
<path d="M75.7027 79.187H69.8056V85.3745C69.7925 85.5348 69.8159 85.6962 69.8742 85.847C69.9325 85.9977 70.0239 86.1333 70.1416 86.2452C70.2599 86.3566 70.4022 86.4404 70.557 86.4916C70.7125 86.5422 70.8776 86.5585 71.0399 86.5389H75.7027V89.5595H70.4113C68.0513 89.5595 66.6513 88.2095 66.6513 85.9145V79.1645H64.457V76.1382H66.6513V71.4695H69.8056V76.1382H75.7027V79.187Z" fill="#0D9F53"/>
</g>
</g>
<defs>
<clipPath id="clip0_45_7717">
<rect width="76" height="90" fill="white"/>
</clipPath>
</defs>
</svg>
