<svg width="12" height="9" viewBox="0 0 12 9" fill="none" xmlns="http://www.w3.org/2000/svg">
<path d="M0.768777 5.7816C1.29811 3.1616 3.5109 1.3 6 1.3C8.48832 1.3 10.7011 3.1616 11.2312 5.7816C11.2522 5.88557 11.3124 5.97667 11.3986 6.03489C11.4848 6.0931 11.5898 6.11364 11.6907 6.092C11.7916 6.07036 11.88 6.0083 11.9364 5.91949C11.9929 5.83067 12.0128 5.72236 11.9918 5.6184C11.3888 2.6384 8.86631 0.5 6 0.5C3.13369 0.5 0.611219 2.6384 0.00815396 5.6184C-0.0128424 5.72236 0.0070896 5.83067 0.0635652 5.91949C0.120041 6.0083 0.208434 6.07036 0.309299 6.092C0.410163 6.11364 0.515238 6.0931 0.601407 6.03489C0.687576 5.97667 0.747781 5.88557 0.768777 5.7816ZM5.99224 2.9C6.7127 2.9 7.40366 3.195 7.9131 3.7201C8.42255 4.2452 8.70875 4.95739 8.70875 5.7C8.70875 6.44261 8.42255 7.1548 7.9131 7.6799C7.40366 8.205 6.7127 8.5 5.99224 8.5C5.27178 8.5 4.58082 8.205 4.07138 7.6799C3.56193 7.1548 3.27573 6.44261 3.27573 5.7C3.27573 4.95739 3.56193 4.2452 4.07138 3.7201C4.58082 3.195 5.27178 2.9 5.99224 2.9Z" fill="#484A4B"/>
</svg>
