<svg width="94" height="94" viewBox="0 0 94 94" fill="none" xmlns="http://www.w3.org/2000/svg">
<path d="M15.6663 23.5H7.83301V78.3334C7.83301 82.6417 11.358 86.1667 15.6663 86.1667H70.4997V78.3334H15.6663V23.5ZM78.333 7.83337H31.333C27.0247 7.83337 23.4997 11.3584 23.4997 15.6667V62.6667C23.4997 66.975 27.0247 70.5 31.333 70.5H78.333C82.6413 70.5 86.1663 66.975 86.1663 62.6667V15.6667C86.1663 11.3584 82.6413 7.83337 78.333 7.83337ZM74.4163 43.0834H58.7497V58.75H50.9163V43.0834H35.2497V35.25H50.9163V19.5834H58.7497V35.25H74.4163V43.0834Z" fill="#949494"/>
</svg>
