<svg width="111" height="136" viewBox="0 0 111 136" fill="none" xmlns="http://www.w3.org/2000/svg">
<path d="M110.64 115.351C109.221 106.545 103.942 98.7569 96.156 93.978C86.3354 87.9795 76.0733 83.9477 73.2496 82.8846V80.6867C79.3546 75.6563 83.3286 68.0253 83.6871 59.4038C87.6205 59.0955 90.7374 55.8248 90.7374 51.8022C90.7374 49.0099 89.1872 46.4643 86.8411 45.1324C91.2739 31.0712 91.6384 22.4581 87.9505 18.9681C90.7082 13.0351 89.6115 6.92247 89.5935 6.83213C89.5002 6.34214 89.1793 5.92597 88.7303 5.7107C88.2793 5.49337 87.7555 5.50158 87.3147 5.7353C87.1855 5.80297 75.5181 11.8222 65.0746 8.04583C65.9008 8.00893 66.9628 8.02944 68.3129 8.15038C68.8971 8.20368 69.4527 7.93102 69.7705 7.44512C70.0883 6.95923 70.1139 6.33805 69.8351 5.82755C69.6106 5.41956 64.354 -3.6421 43.4066 4.58106C43.7592 4.35143 44.1959 4.13412 44.7023 3.93731C45.3819 3.67283 45.7919 2.97784 45.6925 2.25413C45.5931 1.53247 45.0108 0.972787 44.2851 0.903088C43.6782 0.83954 29.2872 -0.435671 22.5463 9.34151C17.2997 16.9528 18.3565 28.8791 25.6689 44.8202C22.9855 46.0214 21.1235 48.7225 21.1235 51.8022C21.1235 55.813 24.2226 59.0754 28.1395 59.4002C28.2757 67.006 31.3391 74.0565 36.8379 79.2948C37.402 79.8319 37.9915 80.33 38.5898 80.8133V82.8928C35.7397 83.9666 25.5034 87.9926 15.7008 93.978C7.91846 98.7569 2.64034 106.545 1.22061 115.351C1.12322 115.949 1.37949 116.55 1.87872 116.897C19.4608 129.056 37.3433 135.137 55.4031 135.137C73.4536 135.137 91.6815 129.062 109.958 116.913C110.472 116.571 110.739 115.96 110.64 115.351ZM87.5884 51.8022C87.5884 54.0675 85.9134 55.9292 83.7464 56.2486V51.8167C84.3075 51.6112 84.7799 51.2752 84.9796 50.7095C85.2813 49.8564 85.5562 49.0395 85.8331 48.2199C86.9065 49.0571 87.5884 50.3745 87.5884 51.8022ZM82.5901 47.9971C81.9249 46.3928 80.8866 42.0631 80.834 30.7629C84.5242 28.3627 86.4654 26.0144 86.6525 25.7776C87.1384 25.1666 87.1015 24.2912 86.5664 23.7213C86.1871 23.3154 85.6366 23.1595 85.121 23.2538C85.5302 22.805 85.9006 22.3435 86.2437 21.8747C87.606 24.0915 88.6405 30.3457 82.5901 47.9971ZM25.1305 11.1415C28.7398 5.8911 35.3269 4.44164 39.6794 4.08286C39.5913 4.26531 39.5154 4.45188 39.4539 4.6446C38.8727 6.45284 39.7696 7.90639 39.8742 8.0663C40.2935 8.71005 41.1186 8.95607 41.8239 8.6465C53.4862 3.54162 60.0569 3.82659 63.5494 5.01978C60.5654 5.41547 59.6899 6.57584 59.4552 7.3918C59.2594 8.07655 59.5464 8.80641 60.1563 9.17543C70.2 15.2316 81.9956 11.445 86.7038 9.47682C86.7878 11.6711 86.546 15.2763 84.6262 18.6328C84.6163 18.6495 84.5994 18.6587 84.5901 18.6759C84.5847 18.6857 84.5856 18.6967 84.5805 18.7067C83.4543 20.6482 81.7675 22.5032 79.2422 23.9468C78.7451 24.2318 78.4417 24.7628 78.4488 25.3327C78.456 25.9047 78.7728 26.4275 79.275 26.7002C79.3263 26.7268 79.7937 26.9728 80.5349 27.1635C79.9775 27.5758 79.3515 28.0025 78.6651 28.4286C78.5973 28.4561 78.5445 28.5049 78.4817 28.5412C73.4043 31.6397 64.8992 34.6465 52.7563 31.9055C52.3565 31.8153 51.9342 31.885 51.5826 32.1023C50.9368 32.5 50.1741 33.4329 50.1506 34.7491C50.129 35.9382 50.6959 37.1764 51.8696 38.4824C47.4802 37.8386 40.8377 36.0427 35.4879 31.0772C34.2557 29.9312 32.4916 29.6852 31.0021 30.4479C29.5527 31.1859 28.7418 32.7051 28.9356 34.3144C29.3856 38.0457 30.0519 43.575 30.1769 46.9516C30.1616 46.9188 30.1452 46.888 30.1298 46.8552C21.9046 30.2961 20.2225 18.2802 25.1305 11.1415ZM24.2725 51.8022C24.2725 49.9529 25.4013 48.3359 27.0178 47.6499C27.1181 47.8545 27.2065 48.0516 27.3088 48.2575C27.5733 48.7895 27.8393 49.307 28.1135 49.7845V56.2485C25.9467 55.9285 24.2725 54.0671 24.2725 51.8022ZM31.2625 58.8773V52.2576C31.3702 52.243 31.4746 52.2418 31.5865 52.2081C33.7852 51.55 33.857 48.8192 32.0621 33.9372C32.016 33.5518 32.2374 33.3529 32.4311 33.2545C32.549 33.193 32.9611 33.0269 33.3455 33.3857C43.0571 42.3981 56.1729 42.0045 56.7234 41.9799C57.405 41.9553 57.9924 41.492 58.1779 40.8359C58.3635 40.1799 58.1052 39.4767 57.5373 39.0974C54.665 37.1785 53.7373 35.9217 53.4144 35.2636C64.1516 37.3849 72.2021 35.3024 77.7014 32.5555C77.8686 44.5681 79.1668 49.0304 80.5974 50.7926V58.1413C80.5974 71.6682 70.0647 83.1593 57.1129 83.7559C50.37 84.0921 43.9202 81.6914 39.01 77.015C34.0138 72.2566 31.2625 65.815 31.2625 58.8773ZM57.2625 86.9008C61.9523 86.6845 66.3176 85.2717 70.1006 82.9603V85.7281C70.1006 85.9598 70.1037 86.2099 70.0647 86.5339C69.3041 95.1876 62.4176 99.0623 55.931 99.0623C49.4433 99.0623 42.5568 95.1896 41.789 86.4744C41.7562 86.2099 41.7388 85.9598 41.7388 85.7281V83.0028C46.3328 85.766 51.6429 87.1744 57.2625 86.9008ZM4.50495 114.877C5.99849 107.382 10.637 100.782 17.3461 96.6637C25.834 91.48 34.8753 87.7259 38.6235 86.2581C38.635 86.4443 38.6355 86.633 38.6584 86.8086C39.5892 97.3915 48.2644 102.211 55.931 102.211C63.5965 102.211 72.2717 97.3915 73.1953 86.868C73.223 86.65 73.218 86.4569 73.2246 86.2525C76.963 87.7149 86.008 91.4694 94.5118 96.6637C101.218 100.778 105.854 107.37 107.353 114.859C72.5485 137.62 37.9563 137.626 4.50495 114.877Z" fill="#4877CC" stroke="#4877CC" stroke-width="0.5"/>
<path d="M55.9388 62.7769C57.1484 62.7769 58.358 62.3176 59.2785 61.3992C59.8946 60.7841 59.8946 59.7877 59.2805 59.1706C58.6655 58.5576 57.6691 58.5556 57.0541 59.1686C56.439 59.7836 55.4375 59.7836 54.8225 59.1686C54.2054 58.5556 53.209 58.5556 52.596 59.1727C51.981 59.7877 51.983 60.7841 52.5981 61.3992C53.5196 62.3176 54.7292 62.7769 55.9388 62.7769Z" fill="#4877CC" stroke="#4877CC" stroke-width="0.5"/>
<path d="M39.8002 51.679C40.5526 52.1075 41.5172 51.8492 41.9477 51.0927C42.8518 49.514 45.4063 49.514 46.3104 51.0927C46.7361 51.8386 47.691 52.1136 48.458 51.679C49.2135 51.2464 49.4749 50.2849 49.0433 49.5304C46.8702 45.7303 41.3887 45.7289 39.2149 49.5304C38.7833 50.2849 39.0447 51.2464 39.8002 51.679Z" fill="#4877CC" stroke="#4877CC" stroke-width="0.5"/>
<path d="M63.4154 51.6791C64.1688 52.1075 65.1324 51.8492 65.5629 51.0927C66.467 49.5141 69.0215 49.5141 69.9257 51.0927C70.3513 51.8387 71.3062 52.1137 72.0732 51.6791C72.8287 51.2465 73.0901 50.285 72.6585 49.5305C71.6386 47.7469 69.8016 46.6808 67.7443 46.6808C65.687 46.6808 63.85 47.7469 62.8301 49.5305C62.3985 50.285 62.6599 51.2465 63.4154 51.6791Z" fill="#4877CC" stroke="#4877CC" stroke-width="0.5"/>
<path d="M45.9855 64.8599C45.4956 64.6077 44.9113 64.6836 44.4459 64.9685C43.9774 65.2535 43.6914 65.8152 43.6914 66.3647C43.6914 73.0974 49.1848 78.5754 55.938 78.5754C62.6912 78.5754 68.1846 73.0974 68.1846 66.2601C68.1846 65.7107 67.8986 65.2022 67.4301 64.9152C66.9617 64.6323 66.3794 64.6056 65.8905 64.8599C59.1926 68.3041 52.6834 68.3041 45.9855 64.8599ZM55.938 75.4263C51.7905 75.4263 48.2817 72.6463 47.191 68.8597C53.0073 71.1477 58.8687 71.1477 64.685 68.8597C63.5943 72.6463 60.0855 75.4263 55.938 75.4263Z" fill="#4877CC" stroke="#4877CC" stroke-width="0.5"/>
</svg>
