<svg width="22" height="22" viewBox="0 0 22 22" fill="none" xmlns="http://www.w3.org/2000/svg">
<path d="M3.66699 7.3335H18.3337M3.66699 7.3335V15.4002C3.66699 16.4268 3.66699 16.9402 3.86683 17.3325C4.04259 17.6774 4.32304 17.9579 4.66799 18.1337C5.05941 18.3335 5.57274 18.3335 6.59758 18.3335H15.4031C16.4279 18.3335 16.9403 18.3335 17.3317 18.1337C17.6773 17.9577 17.9578 17.6772 18.1338 17.3325C18.3337 16.9402 18.3337 16.4287 18.3337 15.4038V7.3335M3.66699 7.3335V6.60016C3.66699 5.5735 3.66699 5.06016 3.86683 4.66783C4.04283 4.32225 4.32241 4.04266 4.66799 3.86666C5.06033 3.66683 5.57366 3.66683 6.60033 3.66683H7.33366M18.3337 7.3335V6.59741C18.3337 5.57258 18.3337 5.05925 18.1338 4.66783C17.9578 4.32278 17.677 4.04232 17.3317 3.86666C16.9403 3.66683 16.427 3.66683 15.4003 3.66683H14.667M7.33366 3.66683H14.667M7.33366 3.66683V1.8335M14.667 3.66683V1.8335" stroke="#4877CC" stroke-width="2" stroke-linecap="round" stroke-linejoin="round"/>
</svg>
