<svg width="158" height="158" viewBox="0 0 158 158" fill="none" xmlns="http://www.w3.org/2000/svg">
<g filter="url(#filter0_d_684_14812)">
<circle cx="73" cy="73" r="65" fill="white"/>
</g>
<path d="M71.3176 65.3113H74.7774V90.6392H71.3176V65.3113Z" fill="#009F5C"/>
<path d="M77.6316 40H68.4626C66.8564 40 65.3166 40.6378 64.1809 41.7733C63.0453 42.9089 62.4076 44.4486 62.4076 46.0549V48.3387H45.7299C44.7741 48.3387 44 49.1129 44 50.0686C44 51.0238 44.7741 51.7985 45.7299 51.7985H50.3228V94.9271C50.3228 97.6803 51.4167 100.32 53.3633 102.267C55.3099 104.214 57.9502 105.307 60.7036 105.307H85.3904C88.1436 105.307 90.7841 104.214 92.7307 102.267C94.6773 100.32 95.7712 97.6805 95.7712 94.9271V51.7985H100.364C101.32 51.7985 102.094 51.0237 102.094 50.0686C102.094 49.1128 101.32 48.3387 100.364 48.3387H83.6864V46.0549C83.6864 44.4488 83.0486 42.9089 81.9131 41.7733C80.7775 40.6377 79.2377 40 77.6314 40H77.6316ZM65.8589 46.0549C65.8589 45.3665 66.1322 44.7064 66.6186 44.22C67.1055 43.7331 67.7656 43.4598 68.4541 43.4598H77.6316C78.32 43.4598 78.9801 43.7331 79.4665 44.22C79.9534 44.7064 80.2267 45.3665 80.2267 46.0549V48.3387H65.8674L65.8589 46.0549ZM92.3113 51.7986V94.9273C92.3113 96.7628 91.5824 98.5228 90.2846 99.8208C88.9867 101.119 87.2266 101.848 85.391 101.848H60.7042C58.8687 101.848 57.1087 101.119 55.8107 99.8208C54.5127 98.5229 53.7839 96.7628 53.7839 94.9273V51.7986H92.3113Z" fill="#009F5C"/>
<path d="M60.9373 65.3113H64.397V90.6392H60.9373V65.3113Z" fill="#009F5C"/>
<path d="M81.698 65.3113H85.1577V90.6392H81.698V65.3113Z" fill="#009F5C"/>
<defs>
<filter id="filter0_d_684_14812" x="0" y="0" width="158" height="158" filterUnits="userSpaceOnUse" color-interpolation-filters="sRGB">
<feFlood flood-opacity="0" result="BackgroundImageFix"/>
<feColorMatrix in="SourceAlpha" type="matrix" values="0 0 0 0 0 0 0 0 0 0 0 0 0 0 0 0 0 0 127 0" result="hardAlpha"/>
<feOffset dx="6" dy="6"/>
<feGaussianBlur stdDeviation="7"/>
<feComposite in2="hardAlpha" operator="out"/>
<feColorMatrix type="matrix" values="0 0 0 0 0 0 0 0 0 0 0 0 0 0 0 0 0 0 0.08 0"/>
<feBlend mode="normal" in2="BackgroundImageFix" result="effect1_dropShadow_684_14812"/>
<feBlend mode="normal" in="SourceGraphic" in2="effect1_dropShadow_684_14812" result="shape"/>
</filter>
</defs>
</svg>
