<svg width="27" height="28" viewBox="0 0 27 28" fill="none" xmlns="http://www.w3.org/2000/svg">
<path d="M6.46979 19.7321H7.84865L16.3434 10.9102L14.9645 9.47821L6.46979 18.3001V19.7321ZM20.5538 9.42707L16.368 5.13118L17.7469 3.69921C18.1244 3.30713 18.5883 3.11108 19.1385 3.11108C19.6887 3.11108 20.1523 3.30713 20.5292 3.69921L21.908 5.13118C22.2856 5.52326 22.4826 5.99649 22.499 6.55086C22.5154 7.10524 22.3348 7.57813 21.9573 7.96953L20.5538 9.42707ZM19.1257 10.9357L8.68581 21.7777H4.5V17.4307L14.9399 6.58871L19.1257 10.9357ZM15.6539 10.1942L14.9645 9.47821L16.3434 10.9102L15.6539 10.1942Z" fill="#00B050"/>
</svg>
