<svg width="38" height="38" viewBox="0 0 38 38" fill="none" xmlns="http://www.w3.org/2000/svg">
<circle cx="19" cy="19" r="19" fill="#D9D9D9" fill-opacity="0.5"/>
<path d="M10.6676 27.2557H12.3018L22.3696 16.8584L20.7354 15.1707L10.6676 25.568V27.2557ZM27.3597 15.1105L22.3988 10.0474L24.033 8.35978C24.4804 7.89768 25.0302 7.66663 25.6824 7.66663C26.3345 7.66663 26.8839 7.89768 27.3306 8.35978L28.9648 10.0474C29.4122 10.5095 29.6457 11.0673 29.6651 11.7207C29.6846 12.374 29.4706 12.9314 29.0231 13.3927L27.3597 15.1105ZM25.6672 16.8885L13.294 29.6666H8.33301V24.5433L20.7062 11.7653L25.6672 16.8885ZM21.5525 16.0146L20.7354 15.1707L22.3696 16.8584L21.5525 16.0146Z" fill="#009F5C"/>
</svg>
