<svg width="38" height="38" viewBox="0 0 38 38" fill="none" xmlns="http://www.w3.org/2000/svg">
<circle cx="19" cy="19" r="19" fill="#D9D9D9" fill-opacity="0.5"/>
<path d="M10.6676 27.2558H12.3018L22.3696 16.8585L20.7354 15.1709L10.6676 25.5681V27.2558ZM27.3597 15.1106L22.3988 10.0476L24.033 8.3599C24.4804 7.8978 25.0302 7.66675 25.6824 7.66675C26.3345 7.66675 26.8839 7.8978 27.3306 8.3599L28.9648 10.0476C29.4122 10.5097 29.6457 11.0674 29.6651 11.7208C29.6846 12.3741 29.4706 12.9315 29.0231 13.3928L27.3597 15.1106ZM25.6672 16.8887L13.294 29.6667H8.33301V24.5435L20.7062 11.7654L25.6672 16.8887ZM21.5525 16.0147L20.7354 15.1709L22.3696 16.8585L21.5525 16.0147Z" fill="#646464"/>
</svg>
