<svg width="112" height="112" viewBox="0 0 112 112" fill="none" xmlns="http://www.w3.org/2000/svg">
<path d="M52.2766 2.4604C54.4028 0.58006 57.5972 0.580059 59.7234 2.4604C61.7237 4.22948 64.591 4.62358 66.9944 3.45979C69.549 2.2228 72.625 3.08465 74.165 5.46889C75.6138 7.71204 78.2685 8.86512 80.8968 8.39293C83.6904 7.89103 86.4198 9.55081 87.2594 12.2621C88.0493 14.813 90.2945 16.6395 92.9527 16.8939C95.7781 17.1644 97.9585 19.499 98.0355 22.3363C98.1079 25.0057 99.777 27.3702 102.268 28.3324C104.916 29.355 106.385 32.1913 105.694 34.9442C105.043 37.5341 106.013 40.2613 108.152 41.8598C110.425 43.5589 111.075 46.6866 109.667 49.1508C108.342 51.4692 108.539 54.3567 110.168 56.4731C111.899 58.7226 111.681 61.9096 109.66 63.9025C107.758 65.7774 107.169 68.6111 108.166 71.0884C109.226 73.7215 108.156 76.7315 105.673 78.1051C103.336 79.3975 102.004 81.9673 102.296 84.6217C102.606 87.443 100.764 90.0528 98.0015 90.7054C95.4027 91.3195 93.4272 93.4347 92.992 96.0694C92.5294 98.8697 90.0514 100.886 87.2155 100.769C84.5474 100.659 82.0744 102.163 80.9445 104.582C79.7436 107.154 76.8136 108.427 74.1143 107.549C71.5748 106.723 68.7879 107.504 67.0471 109.529C65.1968 111.682 62.0321 112.117 59.6697 110.543C57.4471 109.063 54.5529 109.063 52.3303 110.543C49.9679 112.117 46.8032 111.682 44.9529 109.529C43.2121 107.504 40.4252 106.723 37.8857 107.549C35.1864 108.427 32.2565 107.154 31.0555 104.582C29.9255 102.163 27.4526 100.659 24.7845 100.769C21.9486 100.886 19.4706 98.8698 19.008 96.0694C18.5728 93.4347 16.5973 91.3195 13.9985 90.7054C11.2362 90.0528 9.39401 87.4431 9.70409 84.6217C9.99583 81.9673 8.66427 79.3975 6.32748 78.1051C3.8437 76.7315 2.77395 73.7215 3.83373 71.0884C4.83079 68.6111 4.24193 65.7774 2.34047 63.9025C0.319421 61.9096 0.101425 58.7226 1.83229 56.4731C3.46074 54.3567 3.65825 51.4692 2.33315 49.1508C0.924713 46.6866 1.57464 43.5589 3.84823 41.8598C5.98728 40.2613 6.95651 37.5341 6.30606 34.9442C5.61469 32.1913 7.08434 29.355 9.73203 28.3324C12.223 27.3702 13.8921 25.0057 13.9645 22.3363C14.0415 19.499 16.2219 17.1644 19.0473 16.8939C21.7055 16.6395 23.9507 14.813 24.7406 12.2621C25.5802 9.55081 28.3096 7.89103 31.1032 8.39293C33.7315 8.86512 36.3862 7.71204 37.835 5.46889C39.375 3.08465 42.451 2.2228 45.0056 3.45979C47.409 4.62358 50.2763 4.22948 52.2766 2.4604Z" stroke="#009F5C"/>
</svg>
