<svg width="27" height="7" viewBox="0 0 27 7" fill="none" xmlns="http://www.w3.org/2000/svg">
<path opacity="0.8" d="M20.7981 7C19.7123 7 18.6473 6.85624 17.6032 6.56872C16.5592 6.25908 15.5986 5.8831 14.7216 5.44076C13.8445 4.9763 13.1346 4.52291 12.5916 4.08057C12.007 4.45656 11.3596 4.85466 10.6497 5.27488C9.93968 5.6951 9.16705 6.04897 8.33179 6.33649C7.49652 6.62401 6.55684 6.76777 5.51276 6.76777C3.84223 6.76777 2.5058 6.44708 1.50348 5.80569C0.50116 5.1643 0 4.41232 0 3.54976C0 2.57662 0.542923 1.75829 1.62877 1.09479C2.75638 0.431279 4.28074 0.0995258 6.20186 0.0995258C7.87239 0.0995258 9.39675 0.35387 10.7749 0.862559C12.1949 1.34913 13.3016 1.95735 14.0951 2.6872C14.6798 2.31122 15.2854 1.91311 15.9118 1.49289C16.58 1.07267 17.3109 0.718799 18.1044 0.43128C18.9397 0.14376 19.8585 0 20.8608 0C22.5731 0 24.0139 0.309637 25.1833 0.92891C26.3944 1.54818 27 2.31122 27 3.21801C27 3.81517 26.7285 4.40126 26.1856 4.9763C25.6845 5.55134 24.9745 6.03791 24.0557 6.43602C23.1369 6.81201 22.051 7 20.7981 7ZM21.5499 5.93839C22.8863 5.93839 24.0139 5.6951 24.9327 5.20853C25.8515 4.72196 26.3109 4.13586 26.3109 3.45024C26.3109 2.89731 25.9977 2.43286 25.3712 2.05687C24.7865 1.68088 24.0348 1.39337 23.116 1.19431C22.239 0.973144 21.3202 0.862559 20.3596 0.862559C19.3155 0.862559 18.3132 1.00632 17.3527 1.29384C16.4339 1.58136 15.6404 1.94629 14.9722 2.38862C14.8469 2.47709 14.7425 2.56556 14.6589 2.65403C14.5754 2.7425 14.471 2.83096 14.3457 2.91943C15.0139 3.47235 15.5986 3.98104 16.0998 4.4455C16.6427 4.88784 17.4988 5.26382 18.6682 5.57346C19.587 5.81675 20.5476 5.93839 21.5499 5.93839ZM5.57541 5.73934C6.91183 5.73934 8.14385 5.54028 9.27146 5.14218C10.3991 4.74408 11.4014 4.30174 12.2784 3.81517C11.5684 3.15166 10.587 2.54344 9.33411 1.99052C8.12297 1.41548 6.74478 1.12796 5.19954 1.12796C3.82135 1.12796 2.7355 1.38231 1.942 1.891C1.19026 2.37757 0.814385 2.97472 0.814385 3.68246C0.814385 4.36809 1.31555 4.88784 2.31787 5.24171C3.32019 5.57346 4.40603 5.73934 5.57541 5.73934Z" fill="#303030"/>
</svg>
