<svg width="27" height="27" viewBox="0 0 27 27" fill="none" xmlns="http://www.w3.org/2000/svg">
<ellipse cx="13.5915" cy="13.3033" rx="13.2321" ry="13.3033" fill="#00B050" fill-opacity="0.1"/>
<path d="M13.2433 11.4349C12.0285 11.4349 11.037 12.4317 11.037 13.6531C11.037 14.8745 12.0285 15.8713 13.2433 15.8713C14.4582 15.8713 15.4496 14.8745 15.4496 13.6531C15.4496 12.4317 14.4582 11.4349 13.2433 11.4349ZM19.8606 13.6531C19.8606 12.7346 19.8688 11.8243 19.8175 10.9074C19.7662 9.84247 19.5246 8.8973 18.75 8.11853C17.9737 7.33809 17.0352 7.09681 15.976 7.04522C15.0623 6.99364 14.157 7.00196 13.245 7.00196C12.3313 7.00196 11.426 6.99364 10.514 7.04522C9.45472 7.09681 8.5146 7.33976 7.74 8.11853C6.96374 8.89896 6.72374 9.84247 6.67243 10.9074C6.62112 11.826 6.6294 12.7362 6.6294 13.6531C6.6294 14.57 6.62112 15.4819 6.67243 16.3988C6.72374 17.4637 6.96539 18.4089 7.74 19.1877C8.51625 19.9681 9.45472 20.2094 10.514 20.261C11.4276 20.3126 12.333 20.3043 13.245 20.3043C14.1586 20.3043 15.064 20.3126 15.976 20.261C17.0352 20.2094 17.9754 19.9665 18.75 19.1877C19.5262 18.4073 19.7662 17.4637 19.8175 16.3988C19.8705 15.4819 19.8606 14.5717 19.8606 13.6531ZM13.2433 17.066C11.3647 17.066 9.84864 15.5418 9.84864 13.6531C9.84864 11.7644 11.3647 10.2402 13.2433 10.2402C15.1219 10.2402 16.638 11.7644 16.638 13.6531C16.638 15.5418 15.1219 17.066 13.2433 17.066ZM16.777 10.8975C16.3384 10.8975 15.9842 10.5414 15.9842 10.1004C15.9842 9.65942 16.3384 9.30332 16.777 9.30332C17.2157 9.30332 17.5698 9.65942 17.5698 10.1004C17.57 10.2051 17.5496 10.3088 17.5098 10.4056C17.47 10.5023 17.4116 10.5903 17.3379 10.6643C17.2643 10.7383 17.1768 10.797 17.0806 10.8371C16.9843 10.8771 16.8812 10.8976 16.777 10.8975Z" fill="#00B050"/>
</svg>
