<svg width="30" height="30" viewBox="0 0 30 30" fill="none" xmlns="http://www.w3.org/2000/svg">
<path d="M15.3845 2.30774L14.711 3.26429C14.711 3.26429 14.2645 3.87059 13.8312 4.59766C13.6142 4.9624 13.4104 5.34325 13.2356 5.72974C13.0616 6.11622 12.8993 6.47211 12.8993 6.9375C12.8993 8.26202 14.0217 9.35303 15.3845 9.35303C16.7472 9.35303 17.8697 8.26202 17.8697 6.9375C17.8697 6.47211 17.7081 6.11622 17.5333 5.72974C17.3585 5.34325 17.1548 4.9624 16.9377 4.59766C16.5045 3.87059 16.0571 3.26348 16.0571 3.26348L15.3845 2.30774ZM15.3845 9.35303H12.8993V12.5737H7.92885C6.09808 12.5737 4.61525 14.015 4.61525 15.7944C4.61317 16.5817 4.90787 17.3425 5.44365 17.933V23.8462H25.3253V17.933C25.8611 17.3425 26.1558 16.5817 26.1537 15.7944C26.1537 14.015 24.6708 12.5737 22.8401 12.5737H17.8697V9.35303H15.3845ZM15.3845 5.2265C15.4391 5.31507 15.4333 5.30863 15.488 5.40284C15.6852 5.73296 15.8956 6.08482 16.0314 6.38354C16.1673 6.68307 16.2129 6.95924 16.2129 6.9375C16.2129 7.38437 15.8442 7.74268 15.3845 7.74268C14.9247 7.74268 14.5561 7.38437 14.5561 6.9375C14.5561 6.95924 14.6016 6.68307 14.7375 6.38354C14.8733 6.08563 15.0838 5.73296 15.2809 5.40284C15.3356 5.30863 15.3298 5.31427 15.3845 5.2265ZM14.5561 10.9634H16.2129V12.5737H14.5561V10.9634ZM7.92885 14.1841H22.8401C23.8267 14.1841 24.4969 14.8355 24.4969 15.7944C24.4969 16.7534 23.8267 17.4048 22.8401 17.4048C21.8535 17.4048 21.1833 16.7534 21.1833 15.7944H19.5265C19.5265 16.7534 18.8563 17.4048 17.8697 17.4048C16.883 17.4048 16.2129 16.7534 16.2129 15.7944H14.5561C14.5561 16.7534 13.8859 17.4048 12.8993 17.4048C11.9126 17.4048 11.2425 16.7534 11.2425 15.7944H9.58565C9.58565 16.7534 8.91548 17.4048 7.92885 17.4048C6.94222 17.4048 6.27205 16.7534 6.27205 15.7944C6.27205 14.8355 6.94222 14.1841 7.92885 14.1841ZM10.4141 17.933C10.7254 18.2746 11.1081 18.5478 11.5367 18.7344C11.9652 18.921 12.4297 19.0167 12.8993 19.0151C13.3688 19.0167 13.8333 18.921 14.2619 18.7344C14.6904 18.5478 15.0731 18.2746 15.3845 17.933C15.6959 18.2746 16.0786 18.5478 16.5071 18.7344C16.9356 18.921 17.4001 19.0167 17.8697 19.0151C18.3392 19.0167 18.8037 18.921 19.2323 18.7344C19.6608 18.5478 20.0435 18.2746 20.3549 17.933C20.6663 18.2746 21.049 18.5478 21.4775 18.7344C21.906 18.921 22.3705 19.0167 22.8401 19.0151C23.1284 19.0151 23.4034 18.9556 23.6685 18.8895V22.2358H7.10045V18.8895C7.36554 18.9556 7.64057 19.0151 7.92885 19.0151C8.39841 19.0167 8.86292 18.921 9.29144 18.7344C9.71996 18.5478 10.1027 18.2746 10.4141 17.933Z" fill="#00B050"/>
</svg>
