<svg width="36" height="36" viewBox="0 0 36 36" fill="none" xmlns="http://www.w3.org/2000/svg">
<path d="M18 1.5C17.0054 1.5 16.0516 1.89509 15.3483 2.59835C14.6451 3.30161 14.25 4.25544 14.25 5.25C14.2504 5.97934 14.4634 6.69273 14.8631 7.30284C15.2627 7.91294 15.8316 8.39327 16.5 8.685V10.5H10.5C9.70435 10.5 8.94129 10.8161 8.37868 11.3787C7.81607 11.9413 7.5 12.7044 7.5 13.5V14.565C6.83155 14.8567 6.26268 15.3371 5.86305 15.9472C5.46342 16.5573 5.25038 17.2707 5.25 18C5.25038 18.7293 5.46342 19.4427 5.86305 20.0528C6.26268 20.6629 6.83155 21.1433 7.5 21.435V22.5H6C5.20435 22.5 4.44129 22.8161 3.87868 23.3787C3.31607 23.9413 3 24.7044 3 25.5V27.315C2.33155 27.6067 1.76268 28.0871 1.36305 28.6972C0.963423 29.3073 0.750376 30.0207 0.75 30.75C0.75 31.7446 1.14509 32.6984 1.84835 33.4017C2.19657 33.7499 2.60997 34.0261 3.06494 34.2145C3.51991 34.403 4.00754 34.5 4.5 34.5C5.49456 34.5 6.44839 34.1049 7.15165 33.4017C7.85491 32.6984 8.25 31.7446 8.25 30.75C8.24962 30.0207 8.03658 29.3073 7.63695 28.6972C7.23732 28.0871 6.66845 27.6067 6 27.315V25.5H12V27.315C11.3316 27.6067 10.7627 28.0871 10.3631 28.6972C9.96342 29.3073 9.75038 30.0207 9.75 30.75C9.75 31.7446 10.1451 32.6984 10.8483 33.4017C11.5516 34.1049 12.5054 34.5 13.5 34.5C13.9925 34.5 14.4801 34.403 14.9351 34.2145C15.39 34.0261 15.8034 33.7499 16.1516 33.4017C16.4999 33.0534 16.7761 32.64 16.9645 32.1851C17.153 31.7301 17.25 31.2425 17.25 30.75C17.2496 30.0207 17.0366 29.3073 16.6369 28.6972C16.2373 28.0871 15.6684 27.6067 15 27.315V25.5C15 24.7044 14.6839 23.9413 14.1213 23.3787C13.5587 22.8161 12.7956 22.5 12 22.5H10.5V21.435C11.1684 21.1433 11.7373 20.6629 12.1369 20.0528C12.5366 19.4427 12.7496 18.7293 12.75 18C12.7496 17.2707 12.5366 16.5573 12.1369 15.9472C11.7373 15.3371 11.1684 14.8567 10.5 14.565V13.5H25.5V14.565C24.8316 14.8567 24.2627 15.3371 23.8631 15.9472C23.4634 16.5573 23.2504 17.2707 23.25 18C23.2504 18.7293 23.4634 19.4427 23.8631 20.0528C24.2627 20.6629 24.8316 21.1433 25.5 21.435V22.5H24C23.2043 22.5 22.4413 22.8161 21.8787 23.3787C21.3161 23.9413 21 24.7044 21 25.5V27.315C20.3316 27.6067 19.7627 28.0871 19.3631 28.6972C18.9634 29.3073 18.7504 30.0207 18.75 30.75C18.75 31.7446 19.1451 32.6984 19.8483 33.4017C20.5516 34.1049 21.5054 34.5 22.5 34.5C23.4946 34.5 24.4484 34.1049 25.1516 33.4017C25.8549 32.6984 26.25 31.7446 26.25 30.75C26.2496 30.0207 26.0366 29.3073 25.6369 28.6972C25.2373 28.0871 24.6684 27.6067 24 27.315V25.5H30V27.315C29.3316 27.6067 28.7627 28.0871 28.3631 28.6972C27.9634 29.3073 27.7504 30.0207 27.75 30.75C27.75 31.7446 28.1451 32.6984 28.8483 33.4017C29.5516 34.1049 30.5054 34.5 31.5 34.5C32.4946 34.5 33.4484 34.1049 34.1516 33.4017C34.8549 32.6984 35.25 31.7446 35.25 30.75C35.2496 30.0207 35.0366 29.3073 34.6369 28.6972C34.2373 28.0871 33.6684 27.6067 33 27.315V25.5C33 24.7044 32.6839 23.9413 32.1213 23.3787C31.5587 22.8161 30.7956 22.5 30 22.5H28.5V21.435C29.1684 21.1433 29.7373 20.6629 30.1369 20.0528C30.5366 19.4427 30.7496 18.7293 30.75 18C30.7496 17.2707 30.5366 16.5573 30.1369 15.9472C29.7373 15.3371 29.1684 14.8567 28.5 14.565V13.5C28.5 12.7044 28.1839 11.9413 27.6213 11.3787C27.0587 10.8161 26.2956 10.5 25.5 10.5H19.5V8.685C20.1684 8.39327 20.7373 7.91294 21.1369 7.30284C21.5366 6.69273 21.7496 5.97934 21.75 5.25C21.75 4.25544 21.3549 3.30161 20.6516 2.59835C19.9484 1.89509 18.9946 1.5 18 1.5ZM18 3.75C18.3978 3.75 18.7794 3.90804 19.0607 4.18934C19.342 4.47064 19.5 4.85218 19.5 5.25C19.5 5.64783 19.342 6.02936 19.0607 6.31066C18.7794 6.59196 18.3978 6.75 18 6.75C17.6022 6.75 17.2206 6.59196 16.9393 6.31066C16.658 6.02936 16.5 5.64783 16.5 5.25C16.5 4.85218 16.658 4.47064 16.9393 4.18934C17.2206 3.90804 17.6022 3.75 18 3.75ZM9 16.5C9.39782 16.5 9.77935 16.658 10.0607 16.9393C10.342 17.2206 10.5 17.6022 10.5 18C10.5 18.3978 10.342 18.7794 10.0607 19.0607C9.77935 19.342 9.39782 19.5 9 19.5C8.60217 19.5 8.22064 19.342 7.93934 19.0607C7.65804 18.7794 7.5 18.3978 7.5 18C7.5 17.6022 7.65804 17.2206 7.93934 16.9393C8.22064 16.658 8.60217 16.5 9 16.5ZM27 16.5C27.3978 16.5 27.7794 16.658 28.0607 16.9393C28.342 17.2206 28.5 17.6022 28.5 18C28.5 18.3978 28.342 18.7794 28.0607 19.0607C27.7794 19.342 27.3978 19.5 27 19.5C26.6022 19.5 26.2206 19.342 25.9393 19.0607C25.658 18.7794 25.5 18.3978 25.5 18C25.5 17.6022 25.658 17.2206 25.9393 16.9393C26.2206 16.658 26.6022 16.5 27 16.5ZM4.5 29.25C4.89782 29.25 5.27936 29.408 5.56066 29.6893C5.84196 29.9706 6 30.3522 6 30.75C6 31.1478 5.84196 31.5294 5.56066 31.8107C5.27936 32.092 4.89782 32.25 4.5 32.25C4.10217 32.25 3.72064 32.092 3.43934 31.8107C3.15804 31.5294 3 31.1478 3 30.75C3 30.3522 3.15804 29.9706 3.43934 29.6893C3.72064 29.408 4.10217 29.25 4.5 29.25ZM13.5 29.25C13.8978 29.25 14.2794 29.408 14.5607 29.6893C14.842 29.9706 15 30.3522 15 30.75C15 31.1478 14.842 31.5294 14.5607 31.8107C14.2794 32.092 13.8978 32.25 13.5 32.25C13.1022 32.25 12.7206 32.092 12.4393 31.8107C12.158 31.5294 12 31.1478 12 30.75C12 30.3522 12.158 29.9706 12.4393 29.6893C12.7206 29.408 13.1022 29.25 13.5 29.25ZM22.5 29.25C22.8978 29.25 23.2794 29.408 23.5607 29.6893C23.842 29.9706 24 30.3522 24 30.75C24 31.1478 23.842 31.5294 23.5607 31.8107C23.2794 32.092 22.8978 32.25 22.5 32.25C22.1022 32.25 21.7206 32.092 21.4393 31.8107C21.158 31.5294 21 31.1478 21 30.75C21 30.3522 21.158 29.9706 21.4393 29.6893C21.7206 29.408 22.1022 29.25 22.5 29.25ZM31.5 29.25C31.8978 29.25 32.2794 29.408 32.5607 29.6893C32.842 29.9706 33 30.3522 33 30.75C33 31.1478 32.842 31.5294 32.5607 31.8107C32.2794 32.092 31.8978 32.25 31.5 32.25C31.1022 32.25 30.7206 32.092 30.4393 31.8107C30.158 31.5294 30 31.1478 30 30.75C30 30.3522 30.158 29.9706 30.4393 29.6893C30.7206 29.408 31.1022 29.25 31.5 29.25Z" fill="#009456"/>
</svg>
