<svg width="27" height="27" viewBox="0 0 27 27" fill="none" xmlns="http://www.w3.org/2000/svg">
<ellipse cx="13.7673" cy="13.3033" rx="13.2321" ry="13.3033" fill="#00B050" fill-opacity="0.1"/>
<path d="M8.19536 11.3247C8.19536 10.7193 8.30063 10.1473 8.50807 9.61348C8.70626 9.09497 9.00072 8.61909 9.37575 8.21118C9.75002 7.80864 10.1783 7.46055 10.6482 7.17698C11.1304 6.88372 11.6524 6.66248 12.1978 6.52019C12.7499 6.37445 13.3183 6.30095 13.8891 6.30152C14.7707 6.30152 15.5912 6.48906 16.352 6.86259C17.103 7.22931 17.7421 7.79209 18.2027 8.49211C18.678 9.20415 18.9141 10.0096 18.9141 10.9076C18.9141 11.4461 18.8614 11.9729 18.7538 12.4881C18.6482 13.003 18.4803 13.5029 18.2538 13.9768C18.038 14.4355 17.7557 14.8595 17.4163 15.2351C17.0752 15.6047 16.6621 15.8998 16.2026 16.102C15.7039 16.3218 15.1643 16.4324 14.6198 16.4265C14.2413 16.4265 13.8635 16.337 13.4905 16.1572C13.1174 15.9783 12.8496 15.7324 12.6886 15.4172C12.6321 15.6359 12.5547 15.9518 12.4517 16.365C12.3526 16.7775 12.2861 17.0436 12.2567 17.1642C12.2257 17.2841 12.1684 17.484 12.0848 17.7611C12.0281 17.966 11.9554 18.1661 11.8673 18.3595L11.6011 18.884C11.4859 19.1091 11.3572 19.3269 11.2156 19.5361C11.0755 19.74 10.9021 19.9836 10.6955 20.2637L10.5801 20.305L10.5035 20.2209C10.4207 19.3392 10.3781 18.8116 10.3781 18.6373C10.3781 18.1214 10.4393 17.5424 10.56 16.8996C10.6784 16.2576 10.8657 15.4506 11.1173 14.4802C11.3689 13.5106 11.5128 12.9402 11.5515 12.7714C11.3743 12.4079 11.2845 11.9332 11.2845 11.3496C11.2845 10.8835 11.4292 10.4469 11.7195 10.036C12.0105 9.6267 12.3782 9.42204 12.824 9.42204C13.1654 9.42204 13.4301 9.53566 13.6197 9.76367C13.8101 9.9909 13.903 10.2773 13.903 10.6267C13.903 10.9971 13.7807 11.5333 13.5346 12.2344C13.2884 12.9363 13.1661 13.46 13.1661 13.8079C13.1661 14.1604 13.2915 14.4553 13.5423 14.6865C13.7898 14.9177 14.1171 15.043 14.4549 15.0359C14.7614 15.0359 15.0455 14.9658 15.3094 14.825C15.5692 14.6883 15.7941 14.4931 15.9666 14.2546C16.3421 13.7365 16.6099 13.1476 16.7537 12.5231C16.8281 12.1947 16.8853 11.8827 16.9209 11.5893C16.9589 11.2944 16.9751 11.0158 16.9751 10.7512C16.9751 9.78079 16.6686 9.02439 16.0594 8.48277C15.4472 7.94115 14.65 7.6719 13.6693 7.6719C12.5539 7.6719 11.6212 8.03454 10.8743 8.76214C10.1266 9.48741 9.75038 10.4096 9.75038 11.5278C9.75038 11.7745 9.78753 12.0126 9.85797 12.243C9.92685 12.4725 10.0019 12.6554 10.0832 12.7908C10.1637 12.9239 10.2396 13.0538 10.3084 13.1737C10.3781 13.2935 10.4145 13.3791 10.4145 13.4305C10.4145 13.5877 10.3735 13.7923 10.2906 14.0452C10.2047 14.2982 10.1033 14.4242 9.98104 14.4242C9.96943 14.4242 9.92144 14.4157 9.83784 14.3978C9.54833 14.3109 9.28687 14.1484 9.08007 13.927C8.86059 13.6974 8.68737 13.4274 8.56999 13.1317C8.45294 12.837 8.36177 12.5326 8.29753 12.222C8.22813 11.928 8.19383 11.6268 8.19536 11.3247Z" fill="#00B050"/>
</svg>
