<svg width="95" height="86" viewBox="0 0 95 86" fill="none" xmlns="http://www.w3.org/2000/svg">
<g style="mix-blend-mode:color-burn">
<path fill-rule="evenodd" clip-rule="evenodd" d="M62.2712 83.3071C64.71 82.3898 68.5161 80.3747 71.2703 78.5428C74.5654 76.3511 79.0928 72.1711 81.3474 69.2386C85.3971 63.9717 87.5156 58.6147 88.733 50.5622C89.5517 45.1474 89.6099 43.7726 89.6854 28.056C89.7658 11.341 89.839 12.3902 88.5004 11.0659C87.2088 9.78772 87.973 9.84516 72.2409 9.84516C57.0463 9.84516 57.5782 9.81448 56.323 10.762C56.0023 11.0038 55.5397 11.5391 55.2946 11.9514L54.8493 12.7011L54.8046 26.9422L54.7597 41.1834L55.1162 42.0031C55.5346 42.9655 56.683 44.038 57.5504 44.2764C57.906 44.374 60.8691 44.4409 64.8688 44.4414L71.5898 44.4424L71.5898 45.4685C71.5898 47.805 70.9165 51.7701 70.0737 54.3972C68.9533 57.8899 67.2438 60.706 64.7676 63.1381C62.7473 65.1224 60.408 66.6982 57.1194 68.2903C54.7147 69.4544 54.354 69.7432 53.6933 71.0342C53.5183 71.3761 53.4017 71.9855 53.3959 72.5879C53.3877 73.4598 53.4975 73.8139 54.3098 75.5342C57.4009 82.0801 57.6538 82.4954 58.945 83.1472C59.8919 83.6252 61.2516 83.6905 62.2712 83.3071ZM13.4992 83.4267C14.4133 83.2598 18.7112 81.1787 21.0385 79.7762C28.0992 75.5213 33.6107 69.8207 36.8359 63.4371C39.1943 58.7692 40.3625 54.0539 41.1851 45.8801C41.4038 43.708 41.4665 40.4603 41.5256 28.2205C41.6072 11.3221 41.6811 12.3921 40.3407 11.0659C39.0491 9.78788 39.8123 9.84516 24.0898 9.84516C8.76491 9.84515 9.30208 9.81219 8.05587 10.8286C7.72898 11.0952 7.26932 11.6951 7.03429 12.1617L6.60712 13.01L6.61075 27.135C6.61438 40.9924 6.62082 41.2739 6.95034 41.9944C7.33645 42.8387 7.92541 43.4962 8.75122 44.005C9.31511 44.3526 9.49225 44.3627 16.4182 44.4424L23.5079 44.524L23.4576 45.8295C23.3274 49.2016 22.5048 53.2147 21.3621 56.0497C20.1873 58.9647 18.7803 61.091 16.6451 63.1779C14.7019 65.0772 12.718 66.4305 9.60374 67.9809C6.61833 69.4671 5.78394 70.152 5.446 71.3936C5.04604 72.8632 5.25667 73.6036 7.22511 77.6524C8.32372 79.912 9.29861 81.6912 9.67465 82.1226C10.6299 83.2188 12.0279 83.6955 13.4992 83.4267Z" fill="#8383C9"/>
</g>
</svg>
