<svg width="46" height="46" viewBox="0 0 46 46" fill="none" xmlns="http://www.w3.org/2000/svg">
<path fill-rule="evenodd" clip-rule="evenodd" d="M30.1525 40.3381C31.3334 39.894 33.1764 38.9182 34.51 38.0312C36.1055 36.97 38.2977 34.946 39.3894 33.526C41.3503 30.9757 42.3761 28.3818 42.9656 24.4827C43.362 21.8608 43.3902 21.1951 43.4268 13.585C43.4657 5.4914 43.5012 5.99942 42.853 5.35817C42.2276 4.73928 42.5976 4.7671 34.98 4.7671C27.6226 4.7671 27.8802 4.75225 27.2723 5.21104C27.1171 5.32815 26.8931 5.58733 26.7744 5.78694L26.5588 6.14996L26.5371 13.0457L26.5154 19.9414L26.688 20.3383C26.8906 20.8043 27.4467 21.3236 27.8667 21.4391C28.0388 21.4863 29.4736 21.5187 31.4103 21.519L34.6647 21.5194L34.6647 22.0163C34.6647 23.1476 34.3387 25.0676 33.9306 26.3397C33.3881 28.0309 32.5603 29.3944 31.3613 30.5721C30.3831 31.5329 29.2503 32.2959 27.658 33.0668C26.4936 33.6305 26.319 33.7704 25.999 34.3955C25.9143 34.561 25.8578 34.8561 25.855 35.1478C25.8511 35.57 25.9042 35.7414 26.2976 36.5744C27.7943 39.744 27.9167 39.9451 28.542 40.2607C29.0005 40.4922 29.6588 40.5238 30.1525 40.3381ZM6.53664 40.3961C6.97923 40.3152 9.06034 39.3076 10.1873 38.6285C13.6061 36.5682 16.2748 33.8079 17.8365 30.7169C18.9784 28.4566 19.5441 26.1734 19.9425 22.2156C20.0483 21.1638 20.0787 19.5913 20.1073 13.6646C20.1468 5.48223 20.1826 6.00037 19.5336 5.35817C18.9082 4.73936 19.2777 4.7671 11.6647 4.7671C4.24424 4.7671 4.50434 4.75113 3.90091 5.24327C3.74263 5.37239 3.52006 5.66287 3.40625 5.88879L3.19942 6.29954L3.20117 13.139C3.20292 19.8489 3.20605 19.9852 3.36561 20.3341C3.55256 20.7429 3.83774 21.0613 4.23761 21.3077C4.51065 21.476 4.59642 21.4809 7.95003 21.5194L11.3829 21.5589L11.3586 22.1911C11.2956 23.8239 10.8972 25.7671 10.3439 27.1398C9.7751 28.5513 9.0938 29.5809 8.05992 30.5914C7.11899 31.511 6.15834 32.1663 4.65041 32.917C3.20484 33.6367 2.80082 33.9683 2.63719 34.5695C2.44352 35.2811 2.54551 35.6396 3.49865 37.6001C4.03061 38.6942 4.50266 39.5557 4.68475 39.7646C5.1473 40.2954 5.8242 40.5262 6.53664 40.3961Z" fill="#010157"/>
<path opacity="0.93" fill-rule="evenodd" clip-rule="evenodd" d="M10.0523 38.7038C8.9254 39.3829 6.84429 40.3906 6.4017 40.4714C5.68926 40.6016 5.01236 40.3708 4.5498 39.84C4.36772 39.6311 3.89566 38.7696 3.36371 37.6755C2.41057 35.715 2.30858 35.3564 2.50224 34.6449C2.66588 34.0437 3.0699 33.712 4.51546 32.9924C6.0234 32.2417 6.98405 31.5864 7.92497 30.6667C8.95886 29.6562 9.64015 28.6267 10.209 27.2152C10.7623 25.8425 11.1606 23.8993 11.2236 22.2665L11.248 21.6343L7.81509 21.5948C4.46148 21.5562 4.37571 21.5513 4.10266 21.383C3.7028 21.1366 3.41762 20.8183 3.23066 20.4095C3.0711 20.0606 3.06798 19.9243 3.06623 13.2144L3.06447 6.37491L3.27131 5.96417C3.38511 5.73825 3.60768 5.44777 3.76597 5.31865C3.84823 5.25156 3.91444 5.19391 3.98625 5.14438C4.44121 4.83056 5.12085 4.84247 11.5297 4.84247C17.932 4.84247 18.6889 4.82286 19.1396 5.18465C19.2249 5.25307 19.2992 5.33513 19.3986 5.43355C19.5063 5.54014 19.5952 5.61476 19.6683 5.70251C20.0357 6.14344 20.0053 6.91572 19.9723 13.74C19.9438 19.6666 19.9134 21.2392 19.8075 22.291C19.4092 26.2488 18.8435 28.532 17.7016 30.7922C16.1399 33.8833 13.4712 36.6435 10.0523 38.7038Z" fill="#000056"/>
</svg>
