<svg width="156" height="27" viewBox="0 0 156 27" fill="none" xmlns="http://www.w3.org/2000/svg">
<ellipse cx="13.2321" cy="13.3033" rx="13.2321" ry="13.3033" fill="#00B050" fill-opacity="0.1"/>
<path d="M11.4782 20.3049V13.7341H9.75V11.3683H11.4782V9.34759C11.4782 7.75969 12.499 6.30148 14.8512 6.30148C15.8036 6.30148 16.5079 6.39328 16.5079 6.39328L16.4524 8.60255C16.4524 8.60255 15.7342 8.59552 14.9504 8.59552C14.1022 8.59552 13.9663 8.98852 13.9663 9.64082V11.3683H16.5198L16.4087 13.7341H13.9663V20.3049H11.4782Z" fill="#00B050"/>
<ellipse cx="56.4079" cy="13.3033" rx="13.2321" ry="13.3033" fill="#00B050" fill-opacity="0.1"/>
<path d="M63.3739 9.05304C62.8617 9.27518 62.3043 9.43506 61.7301 9.49733C62.3262 9.14128 62.7726 8.5788 62.9855 7.9154C62.4262 8.24994 61.8134 8.48453 61.1744 8.60875C60.9073 8.32169 60.5843 8.09301 60.2254 7.93695C59.8666 7.78089 59.4797 7.7008 59.0887 7.70167C57.5068 7.70167 56.2347 8.99077 56.2347 10.5727C56.2347 10.7948 56.2615 11.017 56.305 11.2307C53.9364 11.1062 51.8239 9.96854 50.4195 8.22673C50.1636 8.66617 50.0295 9.16651 50.0312 9.67571C50.0312 10.672 50.535 11.5505 51.3033 12.0671C50.8506 12.0492 50.4084 11.9241 50.0128 11.7019V11.7373C50.0128 13.1324 50.9937 14.2886 52.301 14.5545C52.0555 14.6186 51.803 14.6514 51.5494 14.6521C51.3636 14.6521 51.1878 14.6336 51.0104 14.6083C51.372 15.746 52.4249 16.5723 53.6786 16.5992C52.6977 17.3716 51.4691 17.826 50.135 17.826C49.8956 17.826 49.6746 17.8176 49.4453 17.7907C50.7108 18.6069 52.2123 19.0781 53.8293 19.0781C59.0786 19.0781 61.9511 14.7059 61.9511 10.911C61.9511 10.7864 61.9511 10.6619 61.9427 10.5374C62.4984 10.1284 62.9855 9.62186 63.3739 9.05304Z" fill="#00B050"/>
<ellipse cx="99.5915" cy="13.3033" rx="13.2321" ry="13.3033" fill="#00B050" fill-opacity="0.1"/>
<path d="M99.2433 11.4349C98.0285 11.4349 97.037 12.4317 97.037 13.6531C97.037 14.8745 98.0285 15.8713 99.2433 15.8713C100.458 15.8713 101.45 14.8745 101.45 13.6531C101.45 12.4317 100.458 11.4349 99.2433 11.4349ZM105.861 13.6531C105.861 12.7346 105.869 11.8243 105.818 10.9074C105.766 9.84247 105.525 8.8973 104.75 8.11853C103.974 7.33809 103.035 7.09681 101.976 7.04522C101.062 6.99364 100.157 7.00196 99.245 7.00196C98.3313 7.00196 97.426 6.99364 96.514 7.04522C95.4547 7.09681 94.5146 7.33976 93.74 8.11853C92.9637 8.89896 92.7237 9.84247 92.6724 10.9074C92.6211 11.826 92.6294 12.7362 92.6294 13.6531C92.6294 14.57 92.6211 15.4819 92.6724 16.3988C92.7237 17.4637 92.9654 18.4089 93.74 19.1877C94.5163 19.9681 95.4547 20.2094 96.514 20.261C97.4276 20.3126 98.333 20.3043 99.245 20.3043C100.159 20.3043 101.064 20.3126 101.976 20.261C103.035 20.2094 103.975 19.9665 104.75 19.1877C105.526 18.4073 105.766 17.4637 105.818 16.3988C105.87 15.4819 105.861 14.5717 105.861 13.6531ZM99.2433 17.066C97.3647 17.066 95.8486 15.5418 95.8486 13.6531C95.8486 11.7644 97.3647 10.2402 99.2433 10.2402C101.122 10.2402 102.638 11.7644 102.638 13.6531C102.638 15.5418 101.122 17.066 99.2433 17.066ZM102.777 10.8975C102.338 10.8975 101.984 10.5414 101.984 10.1004C101.984 9.65942 102.338 9.30332 102.777 9.30332C103.216 9.30332 103.57 9.65942 103.57 10.1004C103.57 10.2051 103.55 10.3088 103.51 10.4056C103.47 10.5023 103.412 10.5903 103.338 10.6643C103.264 10.7383 103.177 10.797 103.081 10.8371C102.984 10.8771 102.881 10.8976 102.777 10.8975Z" fill="#00B050"/>
<ellipse cx="142.767" cy="13.3033" rx="13.2321" ry="13.3033" fill="#00B050" fill-opacity="0.1"/>
<path d="M137.195 11.3247C137.195 10.7193 137.301 10.1473 137.508 9.61348C137.706 9.09497 138.001 8.61909 138.376 8.21118C138.75 7.80864 139.178 7.46055 139.648 7.17698C140.13 6.88372 140.652 6.66248 141.198 6.52019C141.75 6.37445 142.318 6.30095 142.889 6.30152C143.771 6.30152 144.591 6.48906 145.352 6.86259C146.103 7.22931 146.742 7.79209 147.203 8.49211C147.678 9.20415 147.914 10.0096 147.914 10.9076C147.914 11.4461 147.861 11.9729 147.754 12.4881C147.648 13.003 147.48 13.5029 147.254 13.9768C147.038 14.4355 146.756 14.8595 146.416 15.2351C146.075 15.6047 145.662 15.8998 145.203 16.102C144.704 16.3218 144.164 16.4324 143.62 16.4265C143.241 16.4265 142.864 16.337 142.49 16.1572C142.117 15.9783 141.85 15.7324 141.689 15.4172C141.632 15.6359 141.555 15.9518 141.452 16.365C141.353 16.7775 141.286 17.0436 141.257 17.1642C141.226 17.2841 141.168 17.484 141.085 17.7611C141.028 17.966 140.955 18.1661 140.867 18.3595L140.601 18.884C140.486 19.1091 140.357 19.3269 140.216 19.5361C140.076 19.74 139.902 19.9836 139.695 20.2637L139.58 20.305L139.504 20.2209C139.421 19.3392 139.378 18.8116 139.378 18.6373C139.378 18.1214 139.439 17.5424 139.56 16.8996C139.678 16.2576 139.866 15.4506 140.117 14.4802C140.369 13.5106 140.513 12.9402 140.552 12.7714C140.374 12.4079 140.284 11.9332 140.284 11.3496C140.284 10.8835 140.429 10.4469 140.719 10.036C141.011 9.6267 141.378 9.42204 141.824 9.42204C142.165 9.42204 142.43 9.53566 142.62 9.76367C142.81 9.9909 142.903 10.2773 142.903 10.6267C142.903 10.9971 142.781 11.5333 142.535 12.2344C142.288 12.9363 142.166 13.46 142.166 13.8079C142.166 14.1604 142.292 14.4553 142.542 14.6865C142.79 14.9177 143.117 15.043 143.455 15.0359C143.761 15.0359 144.045 14.9658 144.309 14.825C144.569 14.6883 144.794 14.4931 144.967 14.2546C145.342 13.7365 145.61 13.1476 145.754 12.5231C145.828 12.1947 145.885 11.8827 145.921 11.5893C145.959 11.2944 145.975 11.0158 145.975 10.7512C145.975 9.78079 145.669 9.02439 145.059 8.48277C144.447 7.94115 143.65 7.6719 142.669 7.6719C141.554 7.6719 140.621 8.03454 139.874 8.76214C139.127 9.48741 138.75 10.4096 138.75 11.5278C138.75 11.7745 138.788 12.0126 138.858 12.243C138.927 12.4725 139.002 12.6554 139.083 12.7908C139.164 12.9239 139.24 13.0538 139.308 13.1737C139.378 13.2935 139.414 13.3791 139.414 13.4305C139.414 13.5877 139.373 13.7923 139.291 14.0452C139.205 14.2982 139.103 14.4242 138.981 14.4242C138.969 14.4242 138.921 14.4157 138.838 14.3978C138.548 14.3109 138.287 14.1484 138.08 13.927C137.861 13.6974 137.687 13.4274 137.57 13.1317C137.453 12.837 137.362 12.5326 137.298 12.222C137.228 11.928 137.194 11.6268 137.195 11.3247Z" fill="#00B050"/>
</svg>
