<svg width="39" height="39" viewBox="0 0 39 39" fill="none" xmlns="http://www.w3.org/2000/svg">
<path d="M2.04339 21.3964L1.34127 22.1085L2.04339 21.3964C1.66305 21.0214 1.62202 20.4216 1.94776 19.9983L1.16615 19.3969L1.94776 19.9983C2.69988 19.0208 2.7911 17.6871 2.17909 16.6163C1.91403 16.1526 2.03634 15.564 2.46421 15.2443L1.86558 14.4432L2.46421 15.2443C3.45216 14.5059 3.89982 13.2464 3.59939 12.0501C3.46928 11.5321 3.74586 10.9983 4.24413 10.8059C5.39464 10.3615 6.16553 9.26938 6.19898 8.03648C6.21346 7.50253 6.62379 7.06317 7.15551 7.01228C8.38325 6.89478 9.42019 6.05116 9.78504 4.873C9.94304 4.36276 10.4567 4.05041 10.9824 4.14486C12.1963 4.36295 13.4224 3.83038 14.0916 2.79435C14.3814 2.34565 14.9603 2.18346 15.441 2.41625C16.5511 2.95377 17.8754 2.77174 18.7993 1.95467C19.1994 1.60081 19.8006 1.60081 20.2007 1.95467C21.1246 2.77175 22.4489 2.95377 23.559 2.41625C24.0397 2.18346 24.6186 2.34565 24.9084 2.79435C25.5776 3.83038 26.8037 4.36295 28.0176 4.14486C28.5433 4.05041 29.057 4.36276 29.215 4.873C29.5798 6.05116 30.6167 6.89478 31.8445 7.01228C32.3762 7.06317 32.7865 7.50253 32.801 8.03648C32.8345 9.26938 33.6054 10.3615 34.7559 10.8059C35.2541 10.9983 35.5307 11.5321 35.4006 12.0502C35.1002 13.2464 35.5478 14.5059 36.5358 15.2443C36.9637 15.564 37.086 16.1526 36.8209 16.6163C36.2089 17.6871 36.3001 19.0208 37.0522 19.9983C37.378 20.4216 37.337 21.0214 36.9566 21.3964C36.0784 22.2624 35.8064 23.5712 36.2669 24.7153C36.4664 25.2108 36.2651 25.7773 35.7976 26.0358C34.7183 26.6327 34.1033 27.8196 34.2381 29.0456C34.2964 29.5765 33.9498 30.0677 33.4299 30.1905C32.2296 30.4741 31.3172 31.451 31.1162 32.6679C31.0291 33.1949 30.5628 33.5743 30.0291 33.5523C28.7968 33.5015 27.6546 34.1961 27.1328 35.3136C26.9068 35.7976 26.3554 36.0371 25.8474 35.8719C24.6745 35.4906 23.3873 35.8512 22.5833 36.7865C22.2351 37.1915 21.6395 37.2734 21.1949 36.9773C20.1684 36.2937 18.8316 36.2937 17.8051 36.9773C17.3605 37.2734 16.7649 37.1915 16.4167 36.7865C15.6127 35.8512 14.3255 35.4906 13.1526 35.8719C12.6446 36.0371 12.0932 35.7976 11.8672 35.3136C11.3454 34.1961 10.2032 33.5015 8.9709 33.5523C8.4372 33.5743 7.97087 33.1949 7.88381 32.6679C7.6828 31.451 6.77038 30.4741 5.57007 30.1905C5.05024 30.0677 4.70356 29.5765 4.76191 29.0456C4.89666 27.8196 4.28166 26.6327 3.20237 26.0358L2.7184 26.9109L3.20237 26.0358C2.73495 25.7773 2.53363 25.2108 2.73307 24.7153C3.19358 23.5712 2.92161 22.2624 2.04339 21.3964Z" stroke="#4472C4" stroke-width="2"/>
</svg>
