<svg width="27" height="27" viewBox="0 0 27 27" fill="none" xmlns="http://www.w3.org/2000/svg">
<ellipse cx="13.4079" cy="13.3033" rx="13.2321" ry="13.3033" fill="#00B050" fill-opacity="0.1"/>
<path d="M20.3739 9.05304C19.8617 9.27518 19.3043 9.43506 18.7301 9.49733C19.3262 9.14128 19.7726 8.5788 19.9855 7.9154C19.4262 8.24994 18.8134 8.48453 18.1744 8.60875C17.9073 8.32169 17.5843 8.09301 17.2254 7.93695C16.8666 7.78089 16.4797 7.7008 16.0887 7.70167C14.5068 7.70167 13.2347 8.99077 13.2347 10.5727C13.2347 10.7948 13.2615 11.017 13.305 11.2307C10.9364 11.1062 8.82393 9.96854 7.41953 8.22673C7.16363 8.66617 7.02953 9.16651 7.03118 9.67571C7.03118 10.672 7.53503 11.5505 8.30335 12.0671C7.85056 12.0492 7.40838 11.9241 7.01277 11.7019V11.7373C7.01277 13.1324 7.99368 14.2886 9.301 14.5545C9.05553 14.6186 8.80302 14.6514 8.54941 14.6521C8.36361 14.6521 8.18785 14.6336 8.01041 14.6083C8.37198 15.746 9.42487 16.5723 10.6786 16.5992C9.69771 17.3716 8.46906 17.826 7.13496 17.826C6.89559 17.826 6.67464 17.8176 6.44531 17.7907C7.71079 18.6069 9.21228 19.0781 10.8293 19.0781C16.0786 19.0781 18.9511 14.7059 18.9511 10.911C18.9511 10.7864 18.9511 10.6619 18.9427 10.5374C19.4984 10.1284 19.9855 9.62186 20.3739 9.05304Z" fill="#00B050"/>
</svg>
