<svg width="17" height="14" viewBox="0 0 17 14" fill="none" xmlns="http://www.w3.org/2000/svg">
<path d="M8.6305 0C7.09555 0 5.59506 0.410543 4.31879 1.17971C3.04253 1.94888 2.0478 3.04213 1.46039 4.32122C0.872992 5.6003 0.7193 7.00776 1.01876 8.36563C1.31821 9.7235 2.05736 10.9708 3.14274 11.9497C4.22812 12.9287 5.61097 13.5954 7.11643 13.8655C8.62189 14.1356 10.1823 13.997 11.6005 13.4672C13.0186 12.9373 14.2307 12.0401 15.0834 10.889C15.9362 9.73785 16.3914 8.38447 16.3914 7C16.3914 5.14348 15.5737 3.36301 14.1183 2.05025C12.6628 0.737498 10.6888 0 8.6305 0ZM8.6305 1.84C9.00279 1.84072 9.37412 1.87421 9.7392 1.94V3.59L7.84333 5.29L7.52181 5.59V6.59L4.2955 3.67C4.82723 3.09916 5.49052 2.63973 6.23919 2.32368C6.98785 2.00764 7.8039 1.84258 8.6305 1.84ZM9.7392 12.06V10.38L9.12941 10.1L7.52181 9.38V8H10.9477L11.7348 8.72L10.094 12L9.7392 12.06ZM2.90963 7C2.91668 6.12631 3.17247 5.26891 3.65246 4.51L6.41311 7V9.38C6.41373 9.56467 6.47103 9.74557 6.57866 9.90267C6.6863 10.0598 6.84005 10.1869 7.02289 10.27L8.6305 11V12.16C7.11413 12.1574 5.66071 11.6129 4.58847 10.6458C3.51624 9.67864 2.91256 8.36771 2.90963 7ZM11.6129 11.39L12.8214 9C12.8916 8.86133 12.9133 8.70666 12.8836 8.55659C12.8539 8.40652 12.7741 8.26818 12.6551 8.16L11.7238 7.32C11.6242 7.22307 11.5044 7.14488 11.3712 7.08996C11.238 7.03503 11.0941 7.00446 10.9477 7H8.6305V6L10.5264 4.29C10.7312 4.10374 10.8467 3.85234 10.8479 3.59V2.24C11.8221 2.60371 12.6654 3.20407 13.2838 3.9743C13.9023 4.74453 14.2717 5.65442 14.351 6.60274C14.4303 7.55107 14.2164 8.50064 13.7329 9.34581C13.2495 10.191 12.5156 10.8986 11.6129 11.39Z" fill="#707070"/>
</svg>
